<?xml version="1.0" encoding="iso-8859-1"?>
<!-- Generator: Adobe Illustrator 16.0.0, SVG Export Plug-In . SVG Version: 6.00 Build 0)  -->
<!DOCTYPE svg PUBLIC "-//W3C//DTD SVG 1.1//EN" "http://www.w3.org/Graphics/SVG/1.1/DTD/svg11.dtd">
<svg version="1.1" id="Capa_1" xmlns="http://www.w3.org/2000/svg" xmlns:xlink="http://www.w3.org/1999/xlink" x="0px" y="0px" width="35px" height="35px" viewBox="0 0 898.029 898.029" style="enable-background:new 0 0 898.029 898.029;" xml:space="preserve">
  <defs>
    <filter id="dropshadow" x="0" y="0" width="200%" height="200%">
      <feOffset result="offOut" in="SourceGraphic" dx="20" dy="20" />
      <feColorMatrix result="matrixOut" in="offOut" type="matrix"
      values="0.2 0 0 0 0 0 0.2 0 0 0 0 0 0.2 0 0 0 0 0 1 0" />
      <feGaussianBlur result="blurOut" in="matrixOut" stdDeviation="10" />
      <feBlend in="SourceGraphic" in2="blurOut" mode="normal" />
    </filter>
  </defs>	
<g>
	<g>
		<path id="inner" fill="#ffffff" filter="url(#dropshadow)" d="M449.015,239.475c-115.762,0-209.541,93.808-209.541,209.542c0,115.76,93.779,209.541,209.541,209.541
			c115.819,0,209.538-93.779,209.538-209.541C658.553,333.283,564.834,239.475,449.015,239.475z"/>
		<path id="outer" fill="#ffffff" filter="url(#dropshadow)" d="M775.425,419.082c-14.438-157.447-138.854-281.92-296.476-296.274V0.001H419.08v122.807
			c-157.622,14.353-282.036,138.826-296.478,296.273H0v59.869h122.602c14.442,157.389,138.856,281.861,296.479,296.303v122.775
			h59.869V775.253c157.621-14.441,282.036-138.914,296.476-296.303h122.604v-59.869H775.425z M449.015,718.423
			c-148.735,0-269.409-120.672-269.409-269.408c0-148.766,120.673-269.409,269.409-269.409
			c148.793,0,269.406,120.644,269.406,269.409C718.421,597.753,597.808,718.423,449.015,718.423z"/>
	</g>
</g>
</svg>
